<svg xmlns="http://www.w3.org/2000/svg" xmlns:xlink="http://www.w3.org/1999/xlink" width="500" zoomAndPan="magnify" viewBox="0 0 375 374.999991" height="500" preserveAspectRatio="xMidYMid meet" version="1.0"><defs><g/><clipPath id="b1a49faa70"><path d="M 63.984375 63.984375 L 311.015625 63.984375 L 311.015625 311.015625 L 63.984375 311.015625 Z M 63.984375 63.984375 " clip-rule="nonzero"/></clipPath><clipPath id="b17bb1f6a3"><path d="M 63.082031 63.082031 L 311.90625 63.082031 L 311.90625 311.90625 L 63.082031 311.90625 Z M 63.082031 63.082031 " clip-rule="nonzero"/></clipPath><clipPath id="825b0605e4"><path d="M 102.25 102.378906 L 272.5 102.378906 L 272.5 149.628906 L 102.25 149.628906 Z M 102.25 102.378906 " clip-rule="nonzero"/></clipPath><clipPath id="22446f68d0"><path d="M 102.25 218.679688 L 272.5 218.679688 L 272.5 272.5 L 102.25 272.5 Z M 102.25 218.679688 " clip-rule="nonzero"/></clipPath><clipPath id="7e10f33b25"><path d="M 113.398438 113.398438 L 261.601562 113.398438 L 261.601562 261.601562 L 113.398438 261.601562 Z M 113.398438 113.398438 " clip-rule="nonzero"/></clipPath><clipPath id="7d9bc1a1a8"><path d="M 112.5 112.5 L 262.5 112.5 L 262.5 262.5 L 112.5 262.5 Z M 112.5 112.5 " clip-rule="nonzero"/></clipPath><clipPath id="71c7357825"><path d="M 153.410156 162.648438 L 198 162.648438 L 198 245.195312 L 153.410156 245.195312 Z M 153.410156 162.648438 " clip-rule="nonzero"/></clipPath><clipPath id="7f3e35941b"><path d="M 182 132.121094 L 219.15625 132.121094 L 219.15625 169 L 182 169 Z M 182 132.121094 " clip-rule="nonzero"/></clipPath></defs><rect x="-37.5" width="450" fill="#ffffff" y="-37.499999" height="449.999989" fill-opacity="1"/><rect x="-37.5" width="450" fill="#000000" y="-37.499999" height="449.999989" fill-opacity="1"/><g clip-path="url(#b1a49faa70)"><path fill="#a6a6a6" d="M 187.496094 311.90625 C 118.914062 311.90625 63.082031 256.074219 63.082031 187.496094 C 63.082031 118.914062 118.914062 63.082031 187.496094 63.082031 C 256.074219 63.082031 311.90625 118.914062 311.90625 187.496094 C 311.90625 256.074219 256.074219 311.90625 187.496094 311.90625 Z M 187.496094 64.921875 C 119.898438 64.921875 64.921875 119.898438 64.921875 187.496094 C 64.921875 255.09375 119.898438 310.070312 187.496094 310.070312 C 255.09375 310.070312 310.070312 255.09375 310.070312 187.496094 C 310.070312 119.898438 255.09375 64.921875 187.496094 64.921875 Z M 187.496094 64.921875 " fill-opacity="1" fill-rule="nonzero"/></g><g clip-path="url(#b17bb1f6a3)"><path stroke-linecap="butt" transform="matrix(0.75, 0, 0, 0.75, 63.083717, 63.083667)" fill="none" stroke-linejoin="miter" d="M -0.00224788 -0.00218108 L -0.00224788 331.763444 L 331.763378 331.763444 L 331.763378 -0.00218108 L -0.00224788 -0.00218108 " stroke="#000000" stroke-width="16" stroke-opacity="1" stroke-miterlimit="4"/></g><g clip-path="url(#825b0605e4)"><path fill="#ffffff" d="M 187.375 272.628906 C 140.449219 272.628906 102.25 234.425781 102.25 187.503906 C 102.25 140.578125 140.449219 102.378906 187.375 102.378906 C 234.296875 102.378906 272.5 140.578125 272.5 187.503906 C 272.5 234.425781 234.296875 272.628906 187.375 272.628906 Z M 187.375 103.636719 C 141.121094 103.636719 103.507812 141.25 103.507812 187.503906 C 103.507812 233.753906 141.121094 271.371094 187.375 271.371094 C 233.628906 271.371094 271.242188 233.753906 271.242188 187.503906 C 271.242188 141.25 233.628906 103.636719 187.375 103.636719 Z M 187.375 103.636719 " fill-opacity="1" fill-rule="nonzero"/></g><g clip-path="url(#22446f68d0)"><path fill="#ffffff" d="M 187.375 272.5 C 140.449219 272.5 102.25 234.296875 102.25 187.375 C 102.25 140.449219 140.449219 102.25 187.375 102.25 C 234.296875 102.25 272.5 140.449219 272.5 187.375 C 272.5 234.296875 234.296875 272.5 187.375 272.5 Z M 187.375 103.507812 C 141.121094 103.507812 103.507812 141.121094 103.507812 187.375 C 103.507812 233.628906 141.121094 271.242188 187.375 271.242188 C 233.628906 271.242188 271.242188 233.628906 271.242188 187.375 C 271.242188 141.121094 233.628906 103.507812 187.375 103.507812 Z M 187.375 103.507812 " fill-opacity="1" fill-rule="nonzero"/></g><g clip-path="url(#7e10f33b25)"><path fill="#a6a6a6" d="M 187.515625 262.5 C 167.492188 262.5 148.632812 254.699219 134.464844 240.535156 C 120.300781 226.367188 112.5 207.539062 112.5 187.515625 C 112.5 167.492188 120.300781 148.632812 134.464844 134.464844 C 148.632812 120.300781 167.460938 112.5 187.515625 112.5 C 207.570312 112.5 226.367188 120.300781 240.535156 134.464844 C 254.699219 148.632812 262.5 167.460938 262.5 187.515625 C 262.5 207.570312 254.699219 226.367188 240.535156 240.535156 C 226.367188 254.699219 207.539062 262.5 187.515625 262.5 Z M 187.515625 116.984375 C 168.6875 116.984375 150.964844 124.304688 137.632812 137.632812 C 124.304688 150.964844 116.984375 168.65625 116.984375 187.515625 C 116.984375 206.375 124.304688 224.066406 137.632812 237.394531 C 150.964844 250.726562 168.65625 258.046875 187.515625 258.046875 C 206.375 258.046875 224.066406 250.726562 237.394531 237.394531 C 250.726562 224.066406 258.046875 206.375 258.046875 187.515625 C 258.046875 168.65625 250.726562 150.964844 237.394531 137.632812 C 224.035156 124.304688 206.34375 116.984375 187.515625 116.984375 Z M 187.515625 116.984375 " fill-opacity="1" fill-rule="nonzero"/></g><path fill="#a6a6a6" d="M 186.019531 253.144531 L 185.839844 253.144531 C 185.183594 253.117188 184.675781 252.578125 184.707031 251.949219 C 184.734375 251.324219 185.242188 250.8125 185.871094 250.8125 C 185.871094 250.8125 185.902344 250.8125 185.902344 250.8125 L 186.050781 250.8125 C 186.707031 250.84375 187.214844 251.382812 187.1875 252.011719 C 187.1875 252.636719 186.679688 253.144531 186.019531 253.144531 Z M 191.9375 252.996094 C 191.308594 252.996094 190.800781 252.519531 190.773438 251.890625 C 190.742188 251.234375 191.222656 250.695312 191.878906 250.636719 L 191.996094 250.636719 C 192.65625 250.574219 193.222656 251.082031 193.253906 251.710938 C 193.3125 252.367188 192.804688 252.9375 192.175781 252.964844 L 192.027344 252.964844 C 191.96875 252.996094 191.9375 252.996094 191.9375 252.996094 Z M 180.011719 252.726562 C 179.984375 252.726562 179.921875 252.726562 179.863281 252.726562 L 179.714844 252.695312 C 179.058594 252.609375 178.609375 252.039062 178.699219 251.382812 C 178.789062 250.726562 179.355469 250.277344 180.011719 250.367188 L 180.164062 250.394531 C 180.820312 250.457031 181.269531 251.054688 181.207031 251.710938 C 181.089844 252.277344 180.582031 252.726562 180.011719 252.726562 Z M 197.914062 252.308594 C 197.347656 252.308594 196.839844 251.890625 196.75 251.324219 C 196.628906 250.695312 197.078125 250.066406 197.734375 249.976562 L 197.886719 249.949219 C 198.511719 249.859375 199.140625 250.277344 199.230469 250.933594 C 199.320312 251.589844 198.902344 252.1875 198.246094 252.277344 L 198.09375 252.308594 C 198.066406 252.308594 198.003906 252.308594 197.914062 252.308594 Z M 174.035156 251.742188 C 173.945312 251.742188 173.886719 251.742188 173.796875 251.710938 L 173.648438 251.679688 C 173.019531 251.53125 172.601562 250.902344 172.75 250.277344 C 172.902344 249.648438 173.527344 249.230469 174.15625 249.378906 L 174.304688 249.410156 C 174.933594 249.558594 175.351562 250.15625 175.203125 250.8125 C 175.082031 251.382812 174.574219 251.742188 174.035156 251.742188 Z M 203.832031 251.082031 C 203.296875 251.082031 202.816406 250.726562 202.695312 250.1875 C 202.546875 249.558594 202.90625 248.902344 203.5625 248.753906 L 203.683594 248.722656 C 204.3125 248.542969 204.96875 248.929688 205.117188 249.558594 C 205.296875 250.1875 204.910156 250.84375 204.28125 250.992188 L 204.132812 251.023438 C 204.042969 251.054688 203.921875 251.082031 203.832031 251.082031 Z M 168.207031 250.214844 C 168.089844 250.214844 167.96875 250.1875 167.851562 250.15625 L 167.730469 250.128906 C 167.101562 249.917969 166.742188 249.261719 166.953125 248.632812 C 167.164062 248.003906 167.789062 247.675781 168.417969 247.855469 L 168.566406 247.886719 C 169.195312 248.066406 169.523438 248.753906 169.34375 249.351562 C 169.164062 249.886719 168.6875 250.214844 168.207031 250.214844 Z M 209.601562 249.261719 C 209.121094 249.261719 208.675781 248.960938 208.496094 248.484375 C 208.285156 247.886719 208.585938 247.199219 209.210938 246.988281 L 209.332031 246.929688 C 209.929688 246.71875 210.617188 247.019531 210.855469 247.617188 C 211.066406 248.214844 210.765625 248.902344 210.167969 249.140625 L 210.019531 249.199219 C 209.871094 249.261719 209.75 249.261719 209.601562 249.261719 Z M 162.53125 248.15625 C 162.378906 248.15625 162.230469 248.125 162.082031 248.066406 L 161.933594 248.003906 C 161.335938 247.734375 161.066406 247.046875 161.304688 246.449219 C 161.574219 245.851562 162.261719 245.585938 162.859375 245.824219 L 162.976562 245.882812 C 163.574219 246.121094 163.875 246.808594 163.605469 247.4375 C 163.425781 247.855469 162.976562 248.15625 162.53125 248.15625 Z M 215.191406 246.929688 C 214.742188 246.929688 214.324219 246.691406 214.144531 246.273438 C 213.875 245.675781 214.113281 244.988281 214.683594 244.6875 L 214.832031 244.628906 C 215.429688 244.359375 216.117188 244.597656 216.414062 245.195312 C 216.683594 245.792969 216.445312 246.480469 215.847656 246.75 L 215.726562 246.808594 C 215.519531 246.898438 215.339844 246.929688 215.191406 246.929688 Z M 157.0625 245.523438 C 156.882812 245.523438 156.671875 245.464844 156.492188 245.375 L 156.375 245.316406 C 155.804688 245.015625 155.597656 244.300781 155.894531 243.730469 C 156.195312 243.164062 156.910156 242.953125 157.480469 243.253906 L 157.597656 243.3125 C 158.167969 243.613281 158.375 244.328125 158.078125 244.898438 C 157.898438 245.316406 157.480469 245.523438 157.0625 245.523438 Z M 220.507812 244.089844 C 220.121094 244.089844 219.734375 243.878906 219.492188 243.523438 C 219.164062 242.953125 219.34375 242.238281 219.882812 241.910156 L 220 241.820312 C 220.570312 241.488281 221.285156 241.667969 221.617188 242.238281 C 221.945312 242.804688 221.765625 243.523438 221.195312 243.851562 L 221.078125 243.910156 C 220.929688 244.03125 220.71875 244.089844 220.507812 244.089844 Z M 151.859375 242.417969 C 151.652344 242.417969 151.414062 242.355469 151.203125 242.207031 L 151.082031 242.117188 C 150.546875 241.757812 150.394531 241.042969 150.753906 240.472656 C 151.113281 239.9375 151.832031 239.785156 152.398438 240.144531 L 152.519531 240.234375 C 153.054688 240.59375 153.207031 241.308594 152.847656 241.878906 C 152.636719 242.238281 152.25 242.417969 151.859375 242.417969 Z M 225.558594 240.742188 C 225.203125 240.742188 224.84375 240.5625 224.605469 240.265625 C 224.214844 239.757812 224.335938 239.007812 224.84375 238.621094 L 224.960938 238.53125 C 225.5 238.140625 226.21875 238.261719 226.605469 238.769531 C 226.996094 239.308594 226.875 240.027344 226.367188 240.414062 L 226.246094 240.503906 C 226.039062 240.683594 225.800781 240.742188 225.558594 240.742188 Z M 146.988281 238.859375 C 146.71875 238.859375 146.449219 238.769531 146.242188 238.589844 L 146.121094 238.5 C 145.613281 238.082031 145.523438 237.367188 145.941406 236.859375 C 146.359375 236.347656 147.078125 236.257812 147.585938 236.679688 L 147.707031 236.769531 C 148.214844 237.1875 148.273438 237.933594 147.886719 238.410156 C 147.675781 238.710938 147.347656 238.859375 146.988281 238.859375 Z M 230.253906 236.945312 C 229.921875 236.945312 229.59375 236.828125 229.386719 236.558594 C 228.96875 236.082031 228.996094 235.332031 229.476562 234.914062 L 229.59375 234.824219 C 230.074219 234.375 230.820312 234.4375 231.269531 234.914062 C 231.71875 235.394531 231.65625 236.140625 231.179688 236.589844 L 231.089844 236.679688 C 230.820312 236.859375 230.523438 236.945312 230.253906 236.945312 Z M 142.476562 234.824219 C 142.175781 234.824219 141.878906 234.707031 141.667969 234.496094 L 141.550781 234.375 C 141.070312 233.929688 141.070312 233.179688 141.550781 232.703125 C 141.996094 232.226562 142.746094 232.226562 143.222656 232.703125 L 143.3125 232.792969 C 143.792969 233.242188 143.792969 233.988281 143.34375 234.464844 C 143.105469 234.734375 142.773438 234.824219 142.476562 234.824219 Z M 234.585938 232.734375 C 234.289062 232.734375 234.019531 232.644531 233.777344 232.40625 C 233.300781 231.957031 233.269531 231.207031 233.71875 230.730469 L 233.808594 230.609375 C 234.257812 230.132812 235.003906 230.101562 235.484375 230.550781 C 235.960938 231 235.992188 231.746094 235.542969 232.226562 L 235.453125 232.316406 C 235.214844 232.613281 234.886719 232.734375 234.585938 232.734375 Z M 138.351562 230.433594 C 138.023438 230.433594 137.695312 230.28125 137.457031 230.011719 L 137.367188 229.894531 C 136.945312 229.386719 137.007812 228.667969 137.515625 228.21875 C 138.023438 227.800781 138.742188 227.863281 139.1875 228.371094 L 139.277344 228.488281 C 139.695312 228.996094 139.636719 229.714844 139.128906 230.164062 C 138.890625 230.34375 138.621094 230.433594 138.351562 230.433594 Z M 238.5 228.128906 C 238.261719 228.128906 237.992188 228.039062 237.785156 227.890625 C 237.277344 227.503906 237.15625 226.753906 237.574219 226.246094 L 237.664062 226.128906 C 238.054688 225.621094 238.800781 225.53125 239.308594 225.917969 C 239.816406 226.308594 239.90625 227.054688 239.515625 227.5625 L 239.425781 227.683594 C 239.21875 227.980469 238.859375 228.128906 238.5 228.128906 Z M 134.675781 225.648438 C 134.316406 225.648438 133.929688 225.46875 133.71875 225.140625 L 133.628906 225.023438 C 133.269531 224.484375 133.390625 223.765625 133.929688 223.378906 C 134.464844 223.019531 135.183594 223.140625 135.574219 223.675781 L 135.660156 223.796875 C 136.019531 224.335938 135.902344 225.050781 135.363281 225.441406 C 135.125 225.558594 134.886719 225.648438 134.675781 225.648438 Z M 241.96875 223.199219 C 241.757812 223.199219 241.550781 223.140625 241.339844 223.019531 C 240.800781 222.660156 240.625 221.945312 240.980469 221.40625 L 241.070312 221.285156 C 241.429688 220.75 242.148438 220.570312 242.683594 220.929688 C 243.222656 221.285156 243.402344 222.003906 243.042969 222.542969 L 242.953125 222.660156 C 242.746094 222.988281 242.355469 223.199219 241.96875 223.199219 Z M 131.417969 220.539062 C 131 220.539062 130.609375 220.332031 130.402344 219.941406 L 130.34375 219.820312 C 130.011719 219.253906 130.222656 218.535156 130.789062 218.207031 C 131.359375 217.878906 132.074219 218.089844 132.40625 218.65625 L 132.464844 218.777344 C 132.792969 219.34375 132.582031 220.0625 132.015625 220.390625 C 131.835938 220.480469 131.628906 220.539062 131.417969 220.539062 Z M 244.988281 217.9375 C 244.808594 217.9375 244.628906 217.910156 244.449219 217.820312 C 243.878906 217.519531 243.640625 216.804688 243.941406 216.234375 L 244 216.117188 C 244.300781 215.546875 245.015625 215.308594 245.585938 215.609375 C 246.152344 215.90625 246.390625 216.625 246.09375 217.191406 L 246.03125 217.3125 C 245.824219 217.699219 245.40625 217.9375 244.988281 217.9375 Z M 128.699219 215.160156 C 128.25 215.160156 127.832031 214.890625 127.621094 214.472656 L 127.5625 214.351562 C 127.292969 213.753906 127.5625 213.066406 128.160156 212.800781 C 128.757812 212.53125 129.445312 212.800781 129.714844 213.398438 L 129.773438 213.515625 C 130.042969 214.113281 129.773438 214.800781 129.175781 215.070312 C 129.027344 215.128906 128.847656 215.160156 128.699219 215.160156 Z M 247.46875 212.441406 C 247.316406 212.441406 247.167969 212.410156 247.046875 212.351562 C 246.449219 212.113281 246.152344 211.425781 246.390625 210.828125 L 246.449219 210.675781 C 246.691406 210.078125 247.378906 209.78125 247.976562 210.019531 C 248.574219 210.257812 248.871094 210.945312 248.632812 211.542969 L 248.574219 211.691406 C 248.363281 212.140625 247.945312 212.441406 247.46875 212.441406 Z M 126.457031 209.542969 C 125.980469 209.542969 125.5 209.242188 125.351562 208.734375 L 125.292969 208.585938 C 125.082031 207.957031 125.410156 207.300781 126.039062 207.089844 C 126.667969 206.882812 127.324219 207.210938 127.53125 207.835938 L 127.59375 207.988281 C 127.800781 208.613281 127.472656 209.273438 126.875 209.480469 C 126.726562 209.511719 126.605469 209.542969 126.457031 209.542969 Z M 249.441406 206.730469 C 249.320312 206.730469 249.230469 206.703125 249.109375 206.671875 C 248.484375 206.492188 248.125 205.835938 248.304688 205.207031 L 248.332031 205.058594 C 248.511719 204.429688 249.171875 204.070312 249.796875 204.25 C 250.425781 204.429688 250.785156 205.089844 250.605469 205.714844 L 250.574219 205.863281 C 250.394531 206.375 249.949219 206.730469 249.441406 206.730469 Z M 124.785156 203.714844 C 124.246094 203.714844 123.765625 203.355469 123.648438 202.816406 L 123.617188 202.667969 C 123.46875 202.039062 123.855469 201.414062 124.484375 201.261719 C 125.113281 201.113281 125.738281 201.5 125.890625 202.128906 L 125.917969 202.277344 C 126.070312 202.90625 125.679688 203.535156 125.050781 203.683594 C 124.960938 203.714844 124.871094 203.714844 124.785156 203.714844 Z M 250.84375 200.84375 C 250.785156 200.84375 250.695312 200.84375 250.605469 200.8125 C 249.976562 200.695312 249.558594 200.066406 249.679688 199.441406 L 249.707031 199.289062 C 249.828125 198.664062 250.457031 198.246094 251.082031 198.363281 C 251.710938 198.484375 252.128906 199.109375 252.011719 199.738281 L 251.980469 199.886719 C 251.890625 200.457031 251.382812 200.84375 250.84375 200.84375 Z M 123.648438 197.796875 C 123.078125 197.796875 122.570312 197.378906 122.480469 196.78125 L 122.453125 196.628906 C 122.363281 195.972656 122.8125 195.40625 123.46875 195.316406 C 124.125 195.226562 124.695312 195.675781 124.785156 196.332031 L 124.8125 196.480469 C 124.902344 197.136719 124.453125 197.707031 123.828125 197.824219 C 123.765625 197.796875 123.707031 197.796875 123.648438 197.796875 Z M 251.679688 194.867188 C 251.652344 194.867188 251.589844 194.867188 251.5625 194.867188 C 250.902344 194.808594 250.425781 194.238281 250.515625 193.582031 L 250.515625 193.433594 C 250.574219 192.773438 251.144531 192.296875 251.800781 192.386719 C 252.457031 192.445312 252.9375 193.015625 252.847656 193.671875 L 252.847656 193.820312 C 252.816406 194.417969 252.277344 194.867188 251.679688 194.867188 Z M 123.109375 191.789062 C 122.480469 191.789062 121.972656 191.308594 121.945312 190.652344 L 121.945312 190.503906 C 121.914062 189.847656 122.421875 189.308594 123.050781 189.277344 C 123.707031 189.25 124.246094 189.757812 124.273438 190.382812 L 124.273438 190.535156 C 124.304688 191.191406 123.796875 191.730469 123.167969 191.757812 C 123.140625 191.789062 123.109375 191.789062 123.109375 191.789062 Z M 251.980469 188.679688 C 251.324219 188.679688 250.753906 188.292969 250.753906 187.632812 L 250.753906 187.515625 C 250.753906 187.515625 250.753906 187.484375 250.753906 187.484375 L 250.753906 187.335938 C 250.753906 186.679688 251.292969 186.171875 251.949219 186.171875 C 252.609375 186.171875 253.144531 186.707031 253.144531 187.335938 L 253.144531 187.457031 C 253.144531 187.457031 253.144531 187.484375 253.144531 187.484375 L 253.144531 187.632812 C 253.144531 188.292969 252.636719 188.679688 251.980469 188.679688 Z M 123.078125 185.722656 C 123.050781 185.722656 123.050781 185.722656 123.019531 185.722656 C 122.363281 185.691406 121.855469 185.152344 121.882812 184.496094 L 121.882812 184.347656 C 121.914062 183.691406 122.480469 183.210938 123.109375 183.242188 C 123.765625 183.269531 124.273438 183.808594 124.214844 184.464844 L 124.214844 184.617188 C 124.246094 185.242188 123.707031 185.722656 123.078125 185.722656 Z M 251.710938 182.644531 C 251.113281 182.644531 250.605469 182.195312 250.546875 181.566406 L 250.546875 181.417969 C 250.484375 180.761719 250.964844 180.191406 251.589844 180.132812 C 252.25 180.074219 252.816406 180.550781 252.875 181.179688 L 252.875 181.328125 C 252.9375 181.984375 252.457031 182.554688 251.800781 182.613281 C 251.769531 182.644531 251.742188 182.644531 251.710938 182.644531 Z M 123.648438 179.714844 C 123.585938 179.714844 123.527344 179.714844 123.5 179.714844 C 122.839844 179.625 122.390625 179.027344 122.480469 178.398438 L 122.511719 178.25 C 122.601562 177.59375 123.199219 177.144531 123.855469 177.265625 C 124.515625 177.355469 124.960938 177.953125 124.84375 178.609375 L 124.8125 178.757812 C 124.722656 179.296875 124.214844 179.714844 123.648438 179.714844 Z M 250.875 176.667969 C 250.304688 176.667969 249.828125 176.277344 249.707031 175.710938 L 249.679688 175.558594 C 249.558594 174.933594 249.976562 174.304688 250.605469 174.1875 C 251.234375 174.066406 251.859375 174.484375 251.980469 175.113281 L 252.011719 175.261719 C 252.128906 175.890625 251.710938 176.515625 251.082031 176.636719 C 250.992188 176.667969 250.933594 176.667969 250.875 176.667969 Z M 124.753906 173.765625 C 124.664062 173.765625 124.574219 173.765625 124.484375 173.738281 C 123.855469 173.585938 123.46875 172.960938 123.617188 172.332031 L 123.648438 172.183594 C 123.796875 171.554688 124.425781 171.167969 125.050781 171.316406 C 125.679688 171.464844 126.070312 172.09375 125.917969 172.722656 L 125.890625 172.871094 C 125.769531 173.410156 125.292969 173.765625 124.753906 173.765625 Z M 249.46875 170.777344 C 248.960938 170.777344 248.484375 170.449219 248.332031 169.910156 L 248.304688 169.761719 C 248.125 169.136719 248.484375 168.476562 249.109375 168.296875 C 249.738281 168.117188 250.394531 168.476562 250.574219 169.105469 L 250.605469 169.253906 C 250.785156 169.882812 250.425781 170.539062 249.796875 170.71875 C 249.679688 170.777344 249.558594 170.777344 249.46875 170.777344 Z M 126.425781 167.96875 C 126.308594 167.96875 126.1875 167.9375 126.039062 167.910156 C 125.410156 167.699219 125.082031 167.042969 125.292969 166.414062 L 125.351562 166.296875 C 125.558594 165.667969 126.246094 165.339844 126.84375 165.546875 C 127.472656 165.757812 127.800781 166.414062 127.59375 167.042969 L 127.53125 167.191406 C 127.382812 167.671875 126.90625 167.96875 126.425781 167.96875 Z M 247.527344 165.070312 C 247.046875 165.070312 246.601562 164.769531 246.421875 164.324219 L 246.359375 164.203125 C 246.121094 163.605469 246.421875 162.917969 247.019531 162.679688 C 247.617188 162.441406 248.304688 162.738281 248.542969 163.335938 L 248.601562 163.484375 C 248.84375 164.082031 248.542969 164.769531 247.945312 165.011719 C 247.796875 165.039062 247.675781 165.070312 247.527344 165.070312 Z M 128.636719 162.351562 C 128.488281 162.351562 128.308594 162.320312 128.160156 162.261719 C 127.5625 161.992188 127.292969 161.304688 127.5625 160.707031 L 127.621094 160.558594 C 127.890625 159.960938 128.578125 159.691406 129.175781 159.960938 C 129.773438 160.230469 130.042969 160.914062 129.773438 161.515625 L 129.714844 161.632812 C 129.503906 162.082031 129.085938 162.351562 128.636719 162.351562 Z M 245.046875 159.542969 C 244.628906 159.542969 244.210938 159.300781 244 158.882812 L 243.941406 158.765625 C 243.640625 158.195312 243.878906 157.480469 244.449219 157.179688 C 245.015625 156.882812 245.734375 157.121094 246.03125 157.6875 L 246.09375 157.808594 C 246.390625 158.375 246.152344 159.09375 245.585938 159.390625 C 245.40625 159.511719 245.226562 159.542969 245.046875 159.542969 Z M 131.359375 156.941406 C 131.148438 156.941406 130.96875 156.882812 130.789062 156.792969 C 130.222656 156.464844 130.011719 155.746094 130.34375 155.179688 L 130.402344 155.058594 C 130.730469 154.492188 131.449219 154.3125 132.015625 154.609375 C 132.582031 154.9375 132.761719 155.65625 132.464844 156.222656 L 132.40625 156.34375 C 132.164062 156.730469 131.777344 156.941406 131.359375 156.941406 Z M 242.058594 154.28125 C 241.667969 154.28125 241.28125 154.070312 241.070312 153.742188 L 241.011719 153.625 C 240.652344 153.085938 240.832031 152.339844 241.371094 152.011719 C 241.910156 151.652344 242.65625 151.832031 242.984375 152.367188 L 243.074219 152.488281 C 243.433594 153.027344 243.253906 153.773438 242.714844 154.101562 C 242.476562 154.25 242.265625 154.28125 242.058594 154.28125 Z M 134.585938 151.832031 C 134.347656 151.832031 134.109375 151.769531 133.929688 151.621094 C 133.390625 151.261719 133.269531 150.515625 133.628906 149.976562 L 133.71875 149.859375 C 134.078125 149.320312 134.824219 149.199219 135.363281 149.558594 C 135.902344 149.949219 136.019531 150.664062 135.660156 151.203125 L 135.574219 151.324219 C 135.332031 151.652344 134.945312 151.832031 134.585938 151.832031 Z M 238.589844 149.351562 C 238.230469 149.351562 237.875 149.199219 237.664062 148.902344 L 237.574219 148.78125 C 237.1875 148.273438 237.277344 147.527344 237.785156 147.136719 C 238.292969 146.75 239.039062 146.839844 239.425781 147.347656 L 239.515625 147.46875 C 239.90625 147.976562 239.816406 148.722656 239.308594 149.109375 C 239.097656 149.261719 238.859375 149.351562 238.589844 149.351562 Z M 138.261719 147.046875 C 137.992188 147.046875 137.722656 146.960938 137.515625 146.78125 C 137.007812 146.359375 136.945312 145.613281 137.367188 145.136719 L 137.457031 145.015625 C 137.875 144.507812 138.621094 144.476562 139.128906 144.898438 C 139.636719 145.316406 139.667969 146.0625 139.25 146.570312 L 139.160156 146.691406 C 138.949219 146.898438 138.589844 147.046875 138.261719 147.046875 Z M 234.675781 144.746094 C 234.347656 144.746094 234.046875 144.628906 233.808594 144.359375 L 233.71875 144.269531 C 233.269531 143.792969 233.300781 143.042969 233.777344 142.59375 C 234.257812 142.148438 235.003906 142.175781 235.453125 142.65625 L 235.574219 142.773438 C 236.019531 143.253906 235.992188 144 235.511719 144.449219 C 235.273438 144.628906 234.972656 144.746094 234.675781 144.746094 Z M 142.386719 142.625 C 142.085938 142.625 141.789062 142.507812 141.550781 142.265625 C 141.101562 141.789062 141.101562 141.070312 141.578125 140.59375 L 141.699219 140.472656 C 142.175781 140.027344 142.925781 140.027344 143.371094 140.503906 C 143.820312 140.980469 143.820312 141.730469 143.34375 142.175781 L 143.253906 142.265625 C 142.984375 142.507812 142.683594 142.625 142.386719 142.625 Z M 230.371094 140.503906 C 230.101562 140.503906 229.804688 140.414062 229.59375 140.203125 L 229.503906 140.113281 C 229.027344 139.695312 228.96875 138.949219 229.414062 138.441406 C 229.835938 137.964844 230.582031 137.902344 231.089844 138.351562 L 231.207031 138.441406 C 231.6875 138.890625 231.746094 139.605469 231.296875 140.113281 C 231 140.382812 230.699219 140.503906 230.371094 140.503906 Z M 146.898438 138.589844 C 146.570312 138.589844 146.210938 138.441406 145.972656 138.140625 C 145.554688 137.632812 145.644531 136.886719 146.152344 136.5 L 146.273438 136.410156 C 146.78125 135.992188 147.527344 136.082031 147.914062 136.589844 C 148.332031 137.097656 148.246094 137.84375 147.734375 138.230469 L 147.617188 138.320312 C 147.40625 138.5 147.167969 138.589844 146.898438 138.589844 Z M 225.679688 136.707031 C 225.441406 136.707031 225.203125 136.648438 224.992188 136.46875 L 224.871094 136.378906 C 224.335938 135.992188 224.246094 135.273438 224.605469 134.734375 C 224.992188 134.199219 225.738281 134.109375 226.246094 134.464844 L 226.367188 134.554688 C 226.90625 134.945312 226.996094 135.691406 226.605469 136.199219 C 226.398438 136.527344 226.039062 136.707031 225.679688 136.707031 Z M 151.769531 135.003906 C 151.382812 135.003906 151.023438 134.824219 150.785156 134.464844 C 150.425781 133.929688 150.574219 133.179688 151.113281 132.824219 L 151.234375 132.734375 C 151.769531 132.375 152.519531 132.523438 152.875 133.0625 C 153.234375 133.601562 153.085938 134.347656 152.546875 134.707031 L 152.429688 134.796875 C 152.21875 134.945312 151.980469 135.003906 151.769531 135.003906 Z M 220.628906 133.359375 C 220.417969 133.359375 220.210938 133.300781 220.03125 133.179688 L 219.910156 133.089844 C 219.34375 132.761719 219.164062 132.046875 219.492188 131.476562 C 219.820312 130.910156 220.539062 130.730469 221.105469 131.058594 L 221.226562 131.148438 C 221.792969 131.476562 221.972656 132.195312 221.644531 132.761719 C 221.4375 133.152344 221.046875 133.359375 220.628906 133.359375 Z M 156.941406 131.894531 C 156.523438 131.894531 156.105469 131.65625 155.894531 131.269531 C 155.597656 130.699219 155.804688 129.984375 156.375 129.683594 L 156.492188 129.625 C 157.0625 129.324219 157.777344 129.535156 158.078125 130.101562 C 158.375 130.671875 158.167969 131.386719 157.597656 131.6875 L 157.480469 131.746094 C 157.328125 131.835938 157.121094 131.894531 156.941406 131.894531 Z M 215.308594 130.492188 C 215.128906 130.492188 214.980469 130.460938 214.800781 130.371094 L 214.683594 130.3125 C 214.082031 130.042969 213.84375 129.324219 214.113281 128.726562 C 214.382812 128.128906 215.101562 127.890625 215.699219 128.160156 L 215.816406 128.21875 C 216.414062 128.488281 216.652344 129.207031 216.386719 129.804688 C 216.175781 130.253906 215.757812 130.492188 215.308594 130.492188 Z M 162.378906 129.265625 C 161.933594 129.265625 161.484375 128.996094 161.304688 128.550781 C 161.066406 127.953125 161.335938 127.265625 161.933594 126.996094 L 162.082031 126.933594 C 162.679688 126.695312 163.367188 126.964844 163.636719 127.5625 C 163.875 128.160156 163.605469 128.847656 163.007812 129.117188 L 162.886719 129.175781 C 162.679688 129.238281 162.53125 129.265625 162.378906 129.265625 Z M 209.75 128.128906 C 209.632812 128.128906 209.480469 128.101562 209.363281 128.070312 L 209.210938 128.011719 C 208.613281 127.800781 208.285156 127.113281 208.523438 126.488281 C 208.734375 125.890625 209.421875 125.558594 210.050781 125.800781 L 210.199219 125.859375 C 210.796875 126.070312 211.125 126.753906 210.917969 127.382812 C 210.675781 127.832031 210.230469 128.128906 209.75 128.128906 Z M 168.058594 127.175781 C 167.550781 127.175781 167.101562 126.84375 166.921875 126.335938 C 166.714844 125.710938 167.074219 125.050781 167.699219 124.871094 L 167.851562 124.84375 C 168.476562 124.632812 169.136719 124.992188 169.3125 125.621094 C 169.523438 126.246094 169.164062 126.90625 168.535156 127.085938 L 168.386719 127.113281 C 168.296875 127.175781 168.179688 127.175781 168.058594 127.175781 Z M 203.980469 126.335938 C 203.894531 126.335938 203.773438 126.335938 203.683594 126.308594 L 203.535156 126.277344 C 202.90625 126.128906 202.519531 125.472656 202.695312 124.84375 C 202.847656 124.214844 203.503906 123.828125 204.132812 124.007812 L 204.28125 124.035156 C 204.910156 124.214844 205.296875 124.84375 205.117188 125.472656 C 204.96875 125.980469 204.492188 126.335938 203.980469 126.335938 Z M 173.886719 125.648438 C 173.347656 125.648438 172.871094 125.261719 172.75 124.722656 C 172.601562 124.097656 173.019531 123.46875 173.648438 123.320312 L 173.765625 123.289062 C 174.394531 123.140625 175.050781 123.558594 175.171875 124.1875 C 175.320312 124.8125 174.902344 125.441406 174.273438 125.589844 L 174.125 125.621094 C 174.066406 125.621094 173.976562 125.648438 173.886719 125.648438 Z M 198.066406 125.050781 C 198.003906 125.050781 197.945312 125.050781 197.886719 125.023438 L 197.734375 124.992188 C 197.109375 124.902344 196.660156 124.273438 196.75 123.648438 C 196.871094 123.019531 197.46875 122.570312 198.09375 122.660156 L 198.246094 122.691406 C 198.871094 122.8125 199.320312 123.410156 199.199219 124.035156 C 199.140625 124.664062 198.632812 125.050781 198.066406 125.050781 Z M 179.863281 124.664062 C 179.265625 124.664062 178.757812 124.214844 178.699219 123.617188 C 178.609375 122.960938 179.085938 122.390625 179.746094 122.304688 L 179.894531 122.273438 C 180.550781 122.183594 181.121094 122.660156 181.207031 123.320312 C 181.296875 123.976562 180.820312 124.542969 180.164062 124.632812 L 180.011719 124.664062 C 179.953125 124.632812 179.894531 124.664062 179.863281 124.664062 Z M 192.058594 124.363281 C 192.027344 124.363281 191.996094 124.363281 191.96875 124.363281 L 191.820312 124.363281 C 191.160156 124.335938 190.683594 123.765625 190.710938 123.109375 C 190.742188 122.453125 191.308594 121.972656 191.96875 122.003906 L 192.117188 122.003906 C 192.773438 122.035156 193.253906 122.601562 193.222656 123.257812 C 193.191406 123.886719 192.683594 124.363281 192.058594 124.363281 Z M 185.871094 124.246094 C 185.242188 124.246094 184.707031 123.738281 184.707031 123.078125 C 184.675781 122.421875 185.214844 121.882812 185.839844 121.855469 L 185.992188 121.855469 C 186.617188 121.824219 187.1875 122.363281 187.1875 122.988281 C 187.214844 123.648438 186.679688 124.1875 186.050781 124.214844 L 185.871094 124.246094 C 185.902344 124.246094 185.902344 124.246094 185.871094 124.246094 Z M 185.871094 124.246094 " fill-opacity="1" fill-rule="nonzero"/><g clip-path="url(#7d9bc1a1a8)"><path fill="#000000" d="M 131.25 112.5 L 131.25 131.25 L 93.75 131.25 L 93.75 112.5 Z M 131.25 150 L 131.25 168.75 L 93.75 168.75 L 93.75 150 Z M 131.25 187.5 L 131.25 206.25 L 93.75 206.25 L 93.75 187.5 Z M 131.25 225 L 131.25 243.75 L 93.75 243.75 L 93.75 225 Z M 112.5 243.75 L 131.25 243.75 L 131.25 281.25 L 112.5 281.25 Z M 150 243.75 L 168.75 243.75 L 168.75 281.25 L 150 281.25 Z M 187.5 243.75 L 206.25 243.75 L 206.25 281.25 L 187.5 281.25 Z M 225 243.75 L 243.75 243.75 L 243.75 281.25 L 225 281.25 Z M 243.75 262.5 L 243.75 243.75 L 281.25 243.75 L 281.25 262.5 Z M 243.75 225 L 243.75 206.25 L 281.25 206.25 L 281.25 225 Z M 243.75 187.5 L 243.75 168.75 L 281.25 168.75 L 281.25 187.5 Z M 243.75 150 L 243.75 131.25 L 281.25 131.25 L 281.25 150 Z M 262.5 131.25 L 243.75 131.25 L 243.75 93.75 L 262.5 93.75 Z M 225 131.25 L 206.25 131.25 L 206.25 93.75 L 225 93.75 Z M 187.5 131.25 L 168.75 131.25 L 168.75 93.75 L 187.5 93.75 Z M 150 131.25 L 131.25 131.25 L 131.25 93.75 L 150 93.75 Z M 150 131.25 " fill-opacity="1" fill-rule="nonzero"/></g><g clip-path="url(#71c7357825)"><path fill="#5e17eb" d="M 183.625 245.191406 C 183.730469 240.816406 184.390625 236.484375 184.992188 232.183594 C 185.578125 227.867188 186.238281 223.5625 186.894531 219.257812 C 187.527344 214.949219 188.222656 210.648438 188.957031 206.355469 L 191.265625 193.496094 L 191.765625 193.894531 C 188.546875 195.097656 185.042969 195.160156 181.746094 194.574219 C 178.429688 193.972656 175.261719 192.808594 172.195312 191.488281 C 169.117188 190.214844 166.089844 188.714844 162.957031 187.808594 C 161.390625 187.382812 159.765625 187.183594 158.230469 187.507812 C 156.710938 187.808594 155.261719 188.585938 154.445312 189.824219 L 153.410156 189.226562 C 154.695312 186.386719 156.527344 183.683594 159.152344 181.78125 C 161.757812 179.835938 165.1875 179.144531 168.34375 179.507812 C 171.542969 179.816406 174.523438 181.101562 177.226562 182.605469 C 179.945312 184.085938 182.449219 185.949219 185.042969 187.359375 C 186.351562 188.054688 187.714844 188.648438 189.109375 188.902344 C 190.507812 189.191406 191.9375 189.042969 193.152344 188.398438 C 193.742188 188.050781 194.289062 187.625 194.730469 187.089844 C 195.15625 186.542969 195.507812 185.929688 195.769531 185.257812 C 196.285156 183.917969 196.519531 182.429688 196.574219 180.9375 C 196.695312 177.945312 196.222656 174.882812 196.054688 171.832031 L 195.355469 162.6875 L 195.496094 162.675781 L 196.59375 171.78125 L 197.125 176.335938 C 197.304688 177.851562 197.484375 179.398438 197.472656 180.953125 C 197.480469 182.515625 197.320312 184.105469 196.796875 185.636719 C 196.519531 186.40625 196.132812 187.136719 195.632812 187.808594 C 195.117188 188.464844 194.464844 189.015625 193.742188 189.457031 C 192.273438 190.300781 190.488281 190.511719 188.886719 190.21875 C 187.269531 189.964844 185.777344 189.351562 184.375 188.648438 C 181.582031 187.148438 179.15625 185.347656 176.5 183.921875 C 173.875 182.457031 171.082031 181.363281 168.179688 181.011719 C 165.285156 180.640625 162.308594 181.210938 159.953125 182.90625 C 157.574219 184.578125 155.789062 187.0625 154.496094 189.730469 L 153.460938 189.140625 C 154.550781 187.601562 156.3125 186.746094 158.042969 186.46875 C 159.808594 186.171875 161.574219 186.472656 163.199219 186.976562 C 166.4375 188.054688 169.359375 189.652344 172.410156 191 C 175.449219 192.328125 178.546875 193.605469 181.824219 194.105469 C 185.066406 194.625 188.492188 194.523438 191.488281 193.21875 L 192.078125 192.957031 L 191.988281 193.617188 L 190.160156 206.550781 C 189.519531 210.855469 188.835938 215.160156 188.09375 219.445312 C 187.371094 223.742188 186.652344 228.035156 185.859375 232.320312 C 185.105469 236.609375 184.21875 240.867188 183.773438 245.195312 L 183.625 245.191406 " fill-opacity="1" fill-rule="nonzero"/></g><g clip-path="url(#7f3e35941b)"><path fill="#5e17eb" d="M 189.621094 160.933594 C 190.949219 162.339844 192.601562 163.429688 194.402344 164.105469 C 196.203125 164.789062 198.144531 165.089844 200.046875 164.941406 C 201.9375 164.792969 203.828125 164.257812 205.34375 163.167969 C 206.847656 162.109375 208.035156 160.414062 207.800781 158.644531 L 208.339844 159.023438 C 204.664062 159.914062 201.691406 162.503906 198.335938 164.515625 C 196.636719 165.515625 194.808594 166.371094 192.824219 166.792969 C 190.851562 167.222656 188.65625 167.105469 186.769531 166.132812 C 184.90625 165.160156 183.464844 163.46875 182.785156 161.484375 C 182.625 160.976562 182.488281 160.464844 182.433594 159.945312 C 182.371094 159.433594 182.320312 158.8125 182.613281 158.160156 C 182.914062 157.496094 183.640625 157.082031 184.277344 157.03125 C 184.917969 156.964844 185.53125 157.109375 186.066406 157.40625 C 186.589844 157.679688 187.082031 158.242188 187.289062 158.773438 C 187.53125 159.3125 187.617188 159.886719 187.632812 160.433594 C 187.652344 161.515625 187.378906 162.527344 187.175781 163.441406 C 186.96875 164.355469 186.828125 165.257812 187.003906 166.042969 C 187.164062 166.847656 187.679688 167.371094 188.449219 167.621094 C 189.199219 167.847656 190.109375 167.785156 190.777344 167.394531 C 191.484375 167.007812 191.847656 166.367188 191.878906 165.480469 C 191.925781 164.628906 191.785156 163.625 191.75 162.652344 C 191.699219 161.675781 191.664062 160.703125 191.652344 159.726562 C 191.613281 155.828125 191.914062 151.933594 192.574219 148.085938 C 192.925781 146.167969 193.414062 144.253906 194.21875 142.457031 C 195.03125 140.667969 196.148438 138.964844 197.734375 137.730469 C 199.324219 136.523438 201.3125 135.875 203.300781 135.886719 C 205.277344 135.875 207.347656 136.699219 208.539062 138.363281 L 208.726562 138.617188 L 208.425781 138.703125 C 204.902344 139.734375 200.875 138.734375 198.234375 136.15625 C 197.910156 135.839844 197.570312 135.472656 197.398438 134.972656 C 197.242188 134.484375 197.285156 133.894531 197.597656 133.457031 C 198.230469 132.609375 199.207031 132.308594 200.121094 132.160156 C 202.011719 132.011719 203.78125 132.371094 205.542969 132.863281 C 207.285156 133.398438 208.953125 134.183594 210.476562 135.199219 C 211.941406 136.226562 213.535156 137.390625 214.183594 139.328125 C 214.519531 140.28125 214.292969 141.523438 213.492188 142.257812 C 212.695312 143.011719 211.65625 143.214844 210.726562 143.285156 C 209.765625 143.351562 208.851562 143.238281 207.960938 143.148438 C 207.058594 143.050781 206.160156 142.925781 205.269531 142.773438 C 201.691406 142.136719 198.222656 141.160156 194.855469 139.609375 C 194.023438 139.179688 193.191406 138.644531 192.523438 137.867188 C 192.1875 137.480469 191.910156 137.03125 191.714844 136.539062 C 191.515625 136.035156 191.453125 135.527344 191.378906 135.109375 C 191.304688 134.6875 191.214844 134.324219 191.0625 134.089844 C 190.886719 133.859375 190.777344 133.789062 190.507812 133.785156 C 189.976562 133.761719 189.300781 134.351562 189.34375 134.734375 C 189.234375 135.050781 190.089844 135.742188 190.589844 136.65625 C 191.097656 137.554688 191.316406 138.570312 191.351562 139.546875 C 191.410156 141.507812 190.875 143.3125 190.371094 145.035156 C 189.832031 146.765625 189.347656 148.394531 189.1875 150.121094 C 189.007812 151.824219 189.097656 153.542969 189.546875 155.152344 C 189.988281 156.753906 190.859375 158.195312 192.089844 159.296875 C 193.328125 160.398438 194.867188 161.183594 196.492188 161.773438 C 198.121094 162.339844 199.832031 162.835938 201.476562 162.890625 C 203.121094 162.964844 204.703125 162.4375 206.046875 161.460938 C 208.800781 159.507812 210.222656 156.179688 211.125 152.8125 C 211.601562 151.121094 211.914062 149.347656 212.519531 147.582031 C 212.820312 146.703125 213.214844 145.832031 213.734375 145.027344 C 214.242188 144.253906 215.066406 143.296875 216.355469 143.289062 C 217.632812 143.320312 218.472656 144.296875 218.863281 145.21875 C 219.277344 146.15625 219.292969 147.378906 218.671875 148.304688 C 218.101562 149.183594 217.199219 149.769531 216.28125 150.074219 C 215.347656 150.386719 214.386719 150.492188 213.445312 150.441406 C 209.695312 150.199219 206.429688 148.304688 202.957031 148.449219 C 201.25 148.507812 199.613281 149.230469 198.386719 150.445312 C 197.160156 151.648438 196.28125 153.214844 195.785156 154.890625 C 194.816406 158.292969 195.394531 161.949219 196.019531 165.433594 L 195.878906 165.464844 C 195.140625 161.996094 194.402344 158.347656 195.289062 154.753906 C 195.746094 152.988281 196.59375 151.28125 197.910156 149.957031 C 199.199219 148.617188 201.039062 147.765625 202.914062 147.667969 C 206.699219 147.472656 210.050781 149.34375 213.480469 149.460938 C 215.132812 149.511719 216.957031 149.03125 217.761719 147.71875 C 218.136719 147.140625 218.136719 146.351562 217.824219 145.664062 C 217.535156 144.988281 216.921875 144.441406 216.355469 144.472656 C 215.773438 144.453125 215.195312 145 214.769531 145.691406 C 214.332031 146.394531 213.996094 147.179688 213.730469 147.992188 C 213.203125 149.628906 212.917969 151.398438 212.457031 153.164062 C 212.007812 154.917969 211.460938 156.695312 210.574219 158.347656 C 209.695312 160.007812 208.476562 161.535156 206.910156 162.660156 C 205.371094 163.800781 203.378906 164.46875 201.4375 164.378906 C 199.496094 164.316406 197.71875 163.789062 195.980469 163.191406 C 194.242188 162.566406 192.523438 161.714844 191.074219 160.433594 C 189.625 159.15625 188.570312 157.410156 188.066406 155.570312 C 187.03125 151.851562 187.816406 147.96875 188.972656 144.613281 C 189.488281 142.921875 189.976562 141.230469 189.9375 139.59375 C 189.914062 138.78125 189.746094 138.007812 189.375 137.332031 C 189.175781 136.992188 188.984375 136.71875 188.667969 136.351562 C 188.371094 136.003906 187.964844 135.453125 187.96875 134.703125 C 187.984375 133.976562 188.398438 133.421875 188.84375 133.050781 C 189.300781 132.683594 189.859375 132.449219 190.5 132.433594 C 191.140625 132.386719 191.890625 132.84375 192.1875 133.371094 C 192.515625 133.894531 192.609375 134.433594 192.6875 134.886719 C 192.808594 135.8125 193 136.414062 193.523438 137.027344 C 194.011719 137.617188 194.695312 138.101562 195.441406 138.496094 C 198.546875 139.996094 202.011719 141.058594 205.464844 141.722656 C 206.332031 141.886719 207.207031 142.023438 208.078125 142.136719 C 208.964844 142.246094 209.835938 142.363281 210.664062 142.320312 C 211.492188 142.28125 212.328125 142.085938 212.855469 141.585938 C 213.394531 141.097656 213.578125 140.320312 213.34375 139.578125 C 212.878906 138.027344 211.441406 136.84375 210.035156 135.847656 C 208.597656 134.839844 207.011719 134.058594 205.34375 133.511719 C 203.6875 133 201.875 132.632812 200.195312 132.730469 C 199.375 132.835938 198.492188 133.136719 198.042969 133.757812 C 197.820312 134.0625 197.792969 134.449219 197.898438 134.808594 C 198.019531 135.164062 198.292969 135.488281 198.597656 135.789062 C 201.074219 138.246094 204.933594 139.242188 208.300781 138.277344 L 208.183594 138.617188 C 207.097656 137.078125 205.164062 136.34375 203.300781 136.363281 C 201.417969 136.375 199.539062 137.011719 198.0625 138.15625 C 196.59375 139.328125 195.507812 140.957031 194.769531 142.695312 C 194.03125 144.449219 193.601562 146.320312 193.300781 148.210938 C 192.746094 152.011719 192.539062 155.875 192.664062 159.707031 C 192.691406 160.664062 192.746094 161.625 192.816406 162.585938 C 192.875 163.542969 193.039062 164.457031 193.015625 165.542969 C 193 166.082031 192.890625 166.636719 192.613281 167.191406 C 192.316406 167.722656 191.875 168.148438 191.375 168.433594 C 190.371094 169.011719 189.183594 169.097656 188.085938 168.785156 C 187.542969 168.613281 187.015625 168.320312 186.59375 167.882812 C 186.164062 167.441406 185.914062 166.859375 185.792969 166.320312 C 185.542969 165.195312 185.738281 164.132812 185.941406 163.175781 C 186.15625 162.210938 186.371094 161.316406 186.351562 160.460938 C 186.316406 159.609375 186.050781 158.855469 185.429688 158.546875 C 184.800781 158.179688 183.941406 158.261719 183.773438 158.722656 C 183.535156 159.207031 183.730469 160.289062 183.980469 161.078125 C 184.539062 162.761719 185.765625 164.230469 187.332031 165.058594 C 188.90625 165.886719 190.796875 166.035156 192.589844 165.65625 C 194.402344 165.292969 196.140625 164.507812 197.773438 163.5625 C 201.035156 161.660156 204.175781 159.058594 208.140625 158.167969 L 208.628906 158.054688 L 208.675781 158.546875 C 208.777344 159.625 208.488281 160.714844 207.925781 161.597656 C 207.375 162.496094 206.609375 163.210938 205.773438 163.78125 C 204.089844 164.945312 202.050781 165.445312 200.074219 165.515625 C 198.082031 165.597656 196.085938 165.207031 194.269531 164.441406 C 192.441406 163.679688 190.800781 162.503906 189.507812 161.027344 L 189.621094 160.933594 " fill-opacity="1" fill-rule="nonzero"/></g><g fill="#8c52ff" fill-opacity="1"><g transform="translate(113.09634, 124.182276)"><g><path d="M -0.238281 -1.132812 C -0.078125 -1.332031 0.0234375 -1.496094 0.0703125 -1.625 C 0.117188 -1.757812 0.101562 -1.910156 0.0234375 -2.074219 C -0.0546875 -2.242188 -0.230469 -2.445312 -0.503906 -2.683594 L -4.546875 -6.199219 C -4.941406 -6.542969 -5.246094 -6.832031 -5.460938 -7.070312 L -6.121094 -6.25 L -6.933594 -6.957031 L -4.34375 -9.972656 C -3.527344 -10.929688 -2.691406 -11.511719 -1.839844 -11.714844 C -0.984375 -11.921875 -0.167969 -11.683594 0.613281 -11.003906 C 1.011719 -10.65625 1.300781 -10.207031 1.46875 -9.664062 C 1.640625 -9.121094 1.644531 -8.523438 1.484375 -7.871094 C 1.324219 -7.21875 0.976562 -6.558594 0.433594 -5.894531 L 0.0859375 -5.472656 L -0.230469 -5.132812 L 0.699219 -4.324219 C 1.101562 -3.976562 1.410156 -3.683594 1.625 -3.445312 C 1.800781 -3.691406 2.050781 -4 2.375 -4.371094 L 3.1875 -3.664062 L 0.460938 -0.527344 Z M -0.574219 -6.269531 C -0.078125 -6.839844 0.140625 -7.378906 0.0859375 -7.890625 C 0.03125 -8.402344 -0.273438 -8.898438 -0.820312 -9.375 C -1.863281 -10.28125 -2.796875 -10.265625 -3.617188 -9.320312 C -3.828125 -9.074219 -3.933594 -8.847656 -3.925781 -8.644531 C -3.917969 -8.441406 -3.742188 -8.1875 -3.398438 -7.886719 L -1.019531 -5.820312 C -0.871094 -5.949219 -0.722656 -6.101562 -0.574219 -6.269531 Z M -0.574219 -6.269531 "/></g></g></g><g fill="#8c52ff" fill-opacity="1"><g transform="translate(125.497661, 111.260831)"><g><path d="M 3.515625 -2.480469 C 3.214844 -2.242188 2.855469 -2.039062 2.441406 -1.867188 C 2.023438 -1.691406 1.609375 -1.578125 1.1875 -1.523438 L 1.179688 -1.511719 L 1.574219 -1.078125 L 0.726562 -0.410156 L -1.296875 -2.984375 L -0.570312 -3.558594 C -0.00390625 -3.03125 0.589844 -2.75 1.207031 -2.71875 C 1.824219 -2.691406 2.398438 -2.882812 2.925781 -3.296875 C 3.308594 -3.597656 3.542969 -3.945312 3.636719 -4.34375 C 3.726562 -4.742188 3.660156 -5.082031 3.433594 -5.371094 C 3.25 -5.605469 3.007812 -5.742188 2.710938 -5.78125 C 2.414062 -5.820312 2.125 -5.808594 1.847656 -5.742188 C 1.574219 -5.679688 1.144531 -5.5625 0.566406 -5.394531 C -0.492188 -5.082031 -1.398438 -4.964844 -2.152344 -5.035156 C -2.902344 -5.109375 -3.542969 -5.480469 -4.066406 -6.148438 C -4.332031 -6.484375 -4.507812 -6.878906 -4.589844 -7.332031 C -4.671875 -7.785156 -4.601562 -8.265625 -4.382812 -8.78125 C -4.167969 -9.296875 -3.753906 -9.796875 -3.144531 -10.273438 C -2.828125 -10.523438 -2.460938 -10.734375 -2.046875 -10.914062 C -1.628906 -11.09375 -1.242188 -11.1875 -0.878906 -11.199219 L -0.871094 -11.207031 L -1.269531 -11.625 L -0.410156 -12.296875 L 1.605469 -9.734375 L 0.878906 -9.164062 C 0.3125 -9.691406 -0.261719 -9.984375 -0.835938 -10.042969 C -1.410156 -10.101562 -1.949219 -9.929688 -2.457031 -9.535156 C -2.785156 -9.273438 -3 -8.960938 -3.097656 -8.59375 C -3.195312 -8.226562 -3.136719 -7.90625 -2.921875 -7.636719 C -2.667969 -7.3125 -2.320312 -7.148438 -1.875 -7.140625 C -1.429688 -7.136719 -0.78125 -7.253906 0.0703125 -7.496094 C 1.042969 -7.785156 1.914062 -7.921875 2.679688 -7.902344 C 3.449219 -7.882812 4.085938 -7.554688 4.585938 -6.914062 C 4.925781 -6.484375 5.113281 -6.003906 5.140625 -5.484375 C 5.171875 -4.960938 5.046875 -4.441406 4.769531 -3.917969 C 4.492188 -3.398438 4.074219 -2.917969 3.515625 -2.480469 Z M 3.515625 -2.480469 "/></g></g></g><g fill="#8c52ff" fill-opacity="1"><g transform="translate(139.610165, 101.195982)"><g><path d="M 2.101562 -2.121094 C 2.324219 -2.246094 2.480469 -2.359375 2.570312 -2.464844 C 2.664062 -2.570312 2.707031 -2.714844 2.695312 -2.898438 C 2.683594 -3.082031 2.597656 -3.335938 2.429688 -3.660156 L 1.871094 -4.742188 L -2.28125 -7.183594 C -2.511719 -7.328125 -2.734375 -7.488281 -2.945312 -7.660156 C -3.15625 -7.835938 -3.292969 -7.988281 -3.363281 -8.121094 L -3.953125 -7.773438 L -4.445312 -8.730469 L -0.773438 -10.617188 L -0.351562 -9.796875 C -0.625 -9.675781 -0.824219 -9.535156 -0.941406 -9.367188 C -1.0625 -9.203125 -1.074219 -9.03125 -0.984375 -8.859375 C -0.910156 -8.707031 -0.777344 -8.578125 -0.59375 -8.460938 L 1.152344 -7.394531 C 1.199219 -7.363281 1.375 -7.25 1.683594 -7.050781 C 1.988281 -6.851562 2.230469 -6.671875 2.410156 -6.511719 L 2.421875 -6.519531 C 2.417969 -6.589844 2.414062 -6.667969 2.410156 -6.757812 C 2.40625 -6.84375 2.402344 -6.945312 2.394531 -7.058594 C 2.390625 -7.578125 2.382812 -7.90625 2.378906 -8.039062 L 2.371094 -9.640625 C 2.347656 -10.320312 2.375 -10.8125 2.449219 -11.113281 L 2.441406 -11.125 L 1.816406 -10.753906 L 1.511719 -10.582031 L 1.015625 -11.542969 L 3.765625 -12.957031 L 4.1875 -12.136719 C 3.921875 -11.945312 3.734375 -11.699219 3.625 -11.398438 C 3.519531 -11.09375 3.460938 -10.652344 3.457031 -10.074219 L 3.441406 -6.128906 L 4.164062 -4.722656 C 4.402344 -4.257812 4.578125 -3.878906 4.691406 -3.578125 C 4.949219 -3.746094 5.277344 -3.929688 5.667969 -4.128906 L 6.160156 -3.171875 L 2.527344 -1.300781 Z M 2.101562 -2.121094 "/></g></g></g><g fill="#8c52ff" fill-opacity="1"><g transform="translate(156.233161, 93.61512)"><g><path d="M 5.148438 -1.238281 C 4.242188 -0.976562 3.378906 -0.960938 2.558594 -1.183594 C 1.738281 -1.402344 1.03125 -1.824219 0.4375 -2.445312 C -0.15625 -3.066406 -0.582031 -3.820312 -0.835938 -4.710938 C -1.078125 -5.5625 -1.128906 -6.429688 -0.988281 -7.308594 C -0.847656 -8.1875 -0.488281 -8.972656 0.0820312 -9.65625 C 0.652344 -10.34375 1.433594 -10.832031 2.429688 -11.113281 C 2.789062 -11.21875 3.195312 -11.269531 3.644531 -11.273438 C 4.09375 -11.273438 4.523438 -11.222656 4.933594 -11.117188 L 4.945312 -11.121094 L 4.730469 -11.667969 L 5.769531 -11.964844 L 6.664062 -8.828125 L 5.789062 -8.582031 C 5.121094 -10 4.152344 -10.539062 2.882812 -10.195312 C 2.28125 -10.023438 1.820312 -9.703125 1.507812 -9.226562 C 1.191406 -8.753906 1.011719 -8.195312 0.972656 -7.554688 C 0.933594 -6.914062 1.007812 -6.253906 1.199219 -5.582031 C 1.421875 -4.8125 1.730469 -4.15625 2.125 -3.621094 C 2.519531 -3.082031 2.976562 -2.707031 3.496094 -2.488281 C 4.011719 -2.273438 4.566406 -2.25 5.160156 -2.417969 C 5.734375 -2.582031 6.253906 -2.890625 6.722656 -3.34375 C 7.191406 -3.800781 7.539062 -4.335938 7.769531 -4.953125 L 8.585938 -4.546875 C 8.226562 -3.5625 7.734375 -2.8125 7.113281 -2.300781 C 6.496094 -1.789062 5.839844 -1.433594 5.148438 -1.238281 Z M 5.148438 -1.238281 "/></g></g></g><g fill="#8c52ff" fill-opacity="1"><g transform="translate(174.259847, 89.338621)"><g><path d="M 0.632812 -0.972656 C 0.882812 -0.996094 1.070312 -1.042969 1.199219 -1.101562 C 1.324219 -1.164062 1.417969 -1.277344 1.480469 -1.453125 C 1.546875 -1.625 1.5625 -1.894531 1.539062 -2.253906 L 1.160156 -7.601562 C 1.121094 -8.125 1.109375 -8.542969 1.125 -8.863281 L 0.0820312 -8.746094 L 0.00390625 -9.820312 L 4.011719 -10.105469 L 4.078125 -9.183594 C 3.824219 -9.15625 3.636719 -9.113281 3.511719 -9.054688 C 3.382812 -8.992188 3.289062 -8.875 3.226562 -8.703125 C 3.164062 -8.53125 3.144531 -8.261719 3.171875 -7.898438 L 3.324219 -5.722656 L 7.164062 -5.992188 L 7.023438 -8.019531 C 6.976562 -8.640625 6.964844 -9.0625 6.988281 -9.277344 L 5.945312 -9.164062 L 5.867188 -10.238281 L 9.875 -10.523438 L 9.941406 -9.601562 C 9.6875 -9.574219 9.5 -9.53125 9.375 -9.46875 C 9.246094 -9.410156 9.152344 -9.292969 9.089844 -9.117188 C 9.027344 -8.945312 9.007812 -8.679688 9.035156 -8.316406 L 9.414062 -2.96875 C 9.449219 -2.449219 9.460938 -2.027344 9.449219 -1.707031 C 9.742188 -1.757812 10.089844 -1.796875 10.492188 -1.824219 L 10.566406 -0.75 L 6.5625 -0.464844 L 6.496094 -1.386719 C 6.746094 -1.414062 6.933594 -1.457031 7.0625 -1.519531 C 7.1875 -1.578125 7.28125 -1.695312 7.34375 -1.867188 C 7.40625 -2.039062 7.425781 -2.308594 7.402344 -2.671875 L 7.242188 -4.933594 L 3.40625 -4.617188 L 3.550781 -2.554688 C 3.589844 -2.03125 3.597656 -1.613281 3.585938 -1.292969 C 3.878906 -1.339844 4.226562 -1.378906 4.628906 -1.410156 L 4.703125 -0.332031 L 0.699219 -0.0507812 Z M 0.632812 -0.972656 "/></g></g></g><g fill="#8c52ff" fill-opacity="1"><g transform="translate(194.518702, 89.009699)"><g><path d="M 0.800781 -0.835938 C 1.050781 -0.816406 1.246094 -0.824219 1.382812 -0.863281 C 1.515625 -0.898438 1.632812 -0.996094 1.726562 -1.152344 C 1.820312 -1.3125 1.886719 -1.570312 1.925781 -1.933594 L 2.542969 -7.257812 C 2.601562 -7.777344 2.667969 -8.191406 2.742188 -8.503906 L 1.695312 -8.582031 L 1.820312 -9.652344 L 5.808594 -9.191406 L 5.703125 -8.273438 C 5.453125 -8.292969 5.257812 -8.285156 5.121094 -8.25 C 4.988281 -8.214844 4.871094 -8.117188 4.777344 -7.957031 C 4.683594 -7.800781 4.617188 -7.539062 4.574219 -7.179688 L 3.960938 -1.851562 C 3.902344 -1.335938 3.835938 -0.917969 3.761719 -0.609375 C 4.0625 -0.601562 4.410156 -0.574219 4.808594 -0.53125 L 4.683594 0.539062 L 0.695312 0.0820312 Z M 0.800781 -0.835938 "/></g></g></g><g fill="#8c52ff" fill-opacity="1"><g transform="translate(208.771198, 91.238301)"><g><path d="M 5.058594 1.789062 C 3.988281 1.457031 3.175781 0.953125 2.628906 0.265625 C 2.078125 -0.421875 1.753906 -1.183594 1.660156 -2.023438 C 1.566406 -2.863281 1.648438 -3.699219 1.90625 -4.539062 C 2.148438 -5.332031 2.566406 -6.050781 3.152344 -6.6875 C 3.738281 -7.328125 4.460938 -7.78125 5.320312 -8.050781 C 6.179688 -8.320312 7.105469 -8.300781 8.105469 -7.992188 C 9.132812 -7.679688 9.917969 -7.171875 10.46875 -6.46875 C 11.019531 -5.769531 11.351562 -4.992188 11.460938 -4.136719 C 11.570312 -3.285156 11.5 -2.460938 11.257812 -1.667969 C 11.019531 -0.890625 10.605469 -0.179688 10.019531 0.460938 C 9.429688 1.105469 8.707031 1.566406 7.847656 1.839844 C 6.988281 2.109375 6.058594 2.09375 5.058594 1.789062 Z M 5.492188 0.851562 C 6.070312 1.03125 6.601562 0.992188 7.078125 0.738281 C 7.554688 0.484375 7.960938 0.101562 8.296875 -0.410156 C 8.628906 -0.921875 8.886719 -1.480469 9.074219 -2.089844 C 9.460938 -3.355469 9.550781 -4.433594 9.332031 -5.316406 C 9.117188 -6.203125 8.574219 -6.78125 7.699219 -7.050781 C 7.109375 -7.230469 6.570312 -7.191406 6.082031 -6.929688 C 5.589844 -6.671875 5.179688 -6.28125 4.84375 -5.757812 C 4.507812 -5.238281 4.246094 -4.667969 4.054688 -4.054688 C 3.863281 -3.429688 3.761719 -2.777344 3.75 -2.097656 C 3.734375 -1.421875 3.867188 -0.804688 4.140625 -0.257812 C 4.417969 0.289062 4.867188 0.660156 5.492188 0.851562 Z M 5.492188 0.851562 "/></g></g></g><g fill="#8c52ff" fill-opacity="1"><g transform="translate(227.264395, 97.944968)"><g><path d="M 2.652344 0.394531 C 2.878906 0.507812 3.0625 0.574219 3.199219 0.589844 C 3.339844 0.609375 3.484375 0.5625 3.628906 0.449219 C 3.773438 0.339844 3.933594 0.125 4.109375 -0.195312 L 7.320312 -6.078125 L 6.757812 -6.386719 C 6.269531 -6.644531 5.808594 -6.683594 5.371094 -6.507812 C 4.933594 -6.332031 4.539062 -5.917969 4.1875 -5.273438 L 3.375 -5.714844 L 4.953125 -8.457031 L 12.394531 -4.394531 L 10.953125 -1.578125 L 10.144531 -2.019531 C 10.496094 -2.667969 10.632812 -3.230469 10.546875 -3.707031 C 10.460938 -4.183594 10.179688 -4.546875 9.699219 -4.796875 L 9.109375 -5.121094 L 5.964844 0.640625 C 5.664062 1.191406 5.445312 1.550781 5.3125 1.71875 C 5.59375 1.84375 5.929688 2.007812 6.3125 2.21875 L 5.796875 3.164062 L 2.210938 1.207031 Z M 2.652344 0.394531 "/></g></g></g><g fill="#8c52ff" fill-opacity="1"><g transform="translate(242.692514, 107.447423)"><g><path d="M 1.125 -0.285156 C 1.324219 -0.132812 1.496094 -0.0390625 1.628906 0.00390625 C 1.761719 0.0429688 1.910156 0.0234375 2.074219 -0.0625 C 2.238281 -0.148438 2.433594 -0.332031 2.660156 -0.617188 L 6.007812 -4.800781 C 6.332031 -5.210938 6.609375 -5.527344 6.835938 -5.75 L 5.988281 -6.375 L 6.664062 -7.214844 L 9.800781 -4.707031 L 9.222656 -3.988281 C 9.019531 -4.136719 8.851562 -4.234375 8.71875 -4.273438 C 8.585938 -4.316406 8.4375 -4.292969 8.273438 -4.210938 C 8.109375 -4.125 7.914062 -3.941406 7.6875 -3.65625 L 4.339844 0.53125 C 4.015625 0.9375 3.738281 1.253906 3.511719 1.480469 C 3.761719 1.644531 4.042969 1.851562 4.355469 2.101562 L 3.683594 2.945312 L 0.546875 0.4375 Z M 1.125 -0.285156 "/></g></g></g><g fill="#8c52ff" fill-opacity="1"><g transform="translate(253.584144, 116.939035)"><g><path d="M 3.316406 4.125 C 2.695312 3.417969 2.3125 2.644531 2.160156 1.808594 C 2.011719 0.972656 2.089844 0.152344 2.398438 -0.648438 C 2.707031 -1.453125 3.207031 -2.15625 3.902344 -2.765625 C 4.570312 -3.351562 5.332031 -3.765625 6.1875 -4.015625 C 7.042969 -4.261719 7.902344 -4.273438 8.765625 -4.050781 C 9.632812 -3.828125 10.40625 -3.328125 11.085938 -2.550781 C 11.332031 -2.269531 11.554688 -1.925781 11.75 -1.519531 C 11.941406 -1.113281 12.078125 -0.703125 12.15625 -0.285156 L 12.167969 -0.277344 L 12.574219 -0.707031 L 13.28125 0.105469 L 10.828125 2.253906 L 10.230469 1.570312 C 11.230469 0.359375 11.300781 -0.746094 10.449219 -1.75 C 10.039062 -2.21875 9.550781 -2.496094 8.988281 -2.578125 C 8.425781 -2.664062 7.84375 -2.585938 7.246094 -2.347656 C 6.648438 -2.109375 6.085938 -1.757812 5.558594 -1.296875 C 4.957031 -0.769531 4.496094 -0.210938 4.179688 0.375 C 3.863281 0.964844 3.71875 1.535156 3.742188 2.097656 C 3.769531 2.65625 3.984375 3.167969 4.390625 3.632812 C 4.785156 4.082031 5.285156 4.421875 5.894531 4.648438 C 6.503906 4.878906 7.140625 4.964844 7.796875 4.910156 L 7.777344 5.820312 C 6.734375 5.917969 5.847656 5.792969 5.117188 5.449219 C 4.390625 5.109375 3.789062 4.667969 3.316406 4.125 Z M 3.316406 4.125 "/></g></g></g><g fill="#8c52ff" fill-opacity="1"><g transform="translate(131.404646, 281.7983)"><g><path d="M 1.066406 -0.449219 C 1.289062 -0.332031 1.472656 -0.261719 1.609375 -0.242188 C 1.75 -0.222656 1.894531 -0.265625 2.042969 -0.371094 C 2.191406 -0.480469 2.355469 -0.691406 2.539062 -1.007812 L 5.21875 -5.648438 C 5.480469 -6.101562 5.703125 -6.457031 5.894531 -6.710938 L 4.964844 -7.199219 L 5.503906 -8.132812 L 8.960938 -6.171875 C 10.054688 -5.546875 10.785156 -4.839844 11.148438 -4.042969 C 11.511719 -3.246094 11.4375 -2.398438 10.917969 -1.5 C 10.652344 -1.039062 10.269531 -0.675781 9.769531 -0.402344 C 9.265625 -0.132812 8.679688 -0.0117188 8.007812 -0.046875 C 7.339844 -0.078125 6.625 -0.296875 5.867188 -0.699219 L 5.386719 -0.960938 L 4.996094 -1.203125 L 4.378906 -0.136719 C 4.113281 0.324219 3.882812 0.679688 3.691406 0.9375 C 3.964844 1.0625 4.316406 1.246094 4.746094 1.496094 L 4.207031 2.429688 L 0.605469 0.351562 Z M 6.042969 -1.761719 C 6.699219 -1.382812 7.269531 -1.273438 7.761719 -1.421875 C 8.253906 -1.574219 8.683594 -1.96875 9.046875 -2.597656 C 9.738281 -3.792969 9.542969 -4.703125 8.457031 -5.328125 C 8.175781 -5.492188 7.933594 -5.550781 7.734375 -5.503906 C 7.535156 -5.457031 7.324219 -5.238281 7.09375 -4.839844 L 5.519531 -2.113281 C 5.675781 -1.992188 5.851562 -1.875 6.042969 -1.761719 Z M 6.042969 -1.761719 "/></g></g></g><g fill="#8c52ff" fill-opacity="1"><g transform="translate(148.744126, 290.557956)"><g><path d="M 1.464844 0.792969 C 1.1875 0.6875 0.992188 0.5 0.882812 0.234375 C 0.773438 -0.03125 0.773438 -0.304688 0.882812 -0.59375 C 0.988281 -0.875 1.175781 -1.078125 1.441406 -1.207031 C 1.710938 -1.332031 1.972656 -1.351562 2.222656 -1.253906 C 2.496094 -1.152344 2.679688 -0.96875 2.785156 -0.699219 C 2.886719 -0.429688 2.886719 -0.15625 2.78125 0.121094 C 2.671875 0.410156 2.496094 0.621094 2.25 0.753906 C 2.007812 0.886719 1.746094 0.898438 1.464844 0.792969 Z M 1.464844 0.792969 "/></g></g></g><g fill="#8c52ff" fill-opacity="1"><g transform="translate(161.767675, 294.753063)"><g><path d="M 0.882812 -0.75 C 1.128906 -0.707031 1.324219 -0.695312 1.460938 -0.71875 C 1.601562 -0.738281 1.722656 -0.824219 1.832031 -0.972656 C 1.941406 -1.121094 2.035156 -1.371094 2.113281 -1.726562 L 3.265625 -6.964844 C 3.375 -7.472656 3.484375 -7.878906 3.589844 -8.179688 L 2.554688 -8.367188 L 2.785156 -9.417969 L 6.710938 -8.554688 L 6.511719 -7.652344 C 6.261719 -7.699219 6.070312 -7.710938 5.929688 -7.6875 C 5.792969 -7.664062 5.667969 -7.582031 5.558594 -7.433594 C 5.449219 -7.285156 5.355469 -7.03125 5.277344 -6.675781 L 4.128906 -1.441406 C 4.015625 -0.933594 3.90625 -0.527344 3.804688 -0.222656 C 4.101562 -0.1875 4.445312 -0.125 4.835938 -0.0390625 L 4.605469 1.011719 L 0.683594 0.148438 Z M 0.882812 -0.75 "/></g></g></g><g fill="#8c52ff" fill-opacity="1"><g transform="translate(177.546765, 297.47945)"><g><path d="M 5.351562 0.402344 C 4.230469 0.363281 3.316406 0.0859375 2.605469 -0.429688 C 1.894531 -0.949219 1.382812 -1.601562 1.074219 -2.386719 C 0.765625 -3.171875 0.625 -4.003906 0.652344 -4.878906 C 0.679688 -5.710938 0.894531 -6.507812 1.292969 -7.28125 C 1.691406 -8.050781 2.269531 -8.679688 3.027344 -9.160156 C 3.789062 -9.644531 4.6875 -9.871094 5.734375 -9.835938 C 6.804688 -9.800781 7.699219 -9.515625 8.414062 -8.980469 C 9.128906 -8.449219 9.652344 -7.785156 9.980469 -6.992188 C 10.308594 -6.195312 10.457031 -5.382812 10.429688 -4.554688 C 10.402344 -3.742188 10.191406 -2.949219 9.789062 -2.171875 C 9.390625 -1.398438 8.8125 -0.765625 8.054688 -0.277344 C 7.296875 0.210938 6.394531 0.4375 5.351562 0.402344 Z M 5.523438 -0.613281 C 6.128906 -0.59375 6.628906 -0.769531 7.023438 -1.136719 C 7.421875 -1.507812 7.710938 -1.984375 7.898438 -2.566406 C 8.085938 -3.148438 8.191406 -3.753906 8.210938 -4.390625 C 8.257812 -5.714844 8.058594 -6.773438 7.617188 -7.574219 C 7.179688 -8.371094 6.5 -8.785156 5.585938 -8.816406 C 4.972656 -8.839844 4.460938 -8.660156 4.058594 -8.28125 C 3.652344 -7.902344 3.355469 -7.417969 3.167969 -6.824219 C 2.980469 -6.234375 2.875 -5.617188 2.855469 -4.972656 C 2.832031 -4.320312 2.902344 -3.664062 3.070312 -3.007812 C 3.234375 -2.347656 3.519531 -1.789062 3.929688 -1.332031 C 4.339844 -0.875 4.871094 -0.636719 5.523438 -0.613281 Z M 5.523438 -0.613281 "/></g></g></g><g fill="#8c52ff" fill-opacity="1"><g transform="translate(198.963851, 297.033677)"><g><path d="M 2.328125 -1.332031 C 2.574219 -1.382812 2.757812 -1.445312 2.878906 -1.519531 C 3 -1.589844 3.082031 -1.714844 3.128906 -1.894531 C 3.171875 -2.074219 3.164062 -2.339844 3.105469 -2.699219 L 1.980469 -9.308594 L 1.34375 -9.199219 C 0.804688 -9.097656 0.417969 -8.84375 0.183594 -8.433594 C -0.0507812 -8.027344 -0.105469 -7.457031 0.0195312 -6.730469 L -0.890625 -6.578125 L -1.351562 -9.707031 L 7.007812 -11.128906 L 7.621094 -8.023438 L 6.710938 -7.871094 C 6.585938 -8.597656 6.34375 -9.121094 5.980469 -9.441406 C 5.621094 -9.765625 5.171875 -9.875 4.640625 -9.773438 L 3.976562 -9.664062 L 5.078125 -3.191406 C 5.183594 -2.574219 5.234375 -2.160156 5.234375 -1.941406 C 5.535156 -2.019531 5.898438 -2.097656 6.332031 -2.171875 L 6.511719 -1.109375 L 2.484375 -0.421875 Z M 2.328125 -1.332031 "/></g></g></g><g fill="#8c52ff" fill-opacity="1"><g transform="translate(218.109818, 292.682515)"><g><path d="M 0.347656 -1.105469 C 0.582031 -1.199219 0.753906 -1.292969 0.859375 -1.382812 C 0.964844 -1.476562 1.023438 -1.613281 1.039062 -1.796875 C 1.050781 -1.980469 0.996094 -2.242188 0.875 -2.585938 L -0.929688 -7.632812 C -1.101562 -8.125 -1.226562 -8.527344 -1.296875 -8.839844 L -2.273438 -8.445312 L -2.636719 -9.460938 L 1.148438 -10.8125 L 1.457031 -9.941406 C 1.222656 -9.847656 1.054688 -9.753906 0.949219 -9.664062 C 0.84375 -9.570312 0.78125 -9.433594 0.769531 -9.25 C 0.753906 -9.066406 0.808594 -8.804688 0.929688 -8.460938 L 2.734375 -3.414062 C 2.910156 -2.921875 3.035156 -2.519531 3.105469 -2.207031 C 3.375 -2.335938 3.703125 -2.464844 4.078125 -2.601562 L 4.441406 -1.585938 L 0.660156 -0.234375 Z M 0.347656 -1.105469 "/></g></g></g><g fill="#8c52ff" fill-opacity="1"><g transform="translate(232.894049, 286.606413)"><g><path d="M 4.703125 -2.433594 C 3.882812 -1.964844 3.050781 -1.742188 2.199219 -1.761719 C 1.351562 -1.78125 0.5625 -2.019531 -0.164062 -2.480469 C -0.886719 -2.941406 -1.480469 -3.570312 -1.941406 -4.371094 C -2.378906 -5.140625 -2.636719 -5.96875 -2.710938 -6.859375 C -2.785156 -7.746094 -2.625 -8.59375 -2.238281 -9.394531 C -1.847656 -10.199219 -1.203125 -10.859375 -0.304688 -11.375 C 0.0195312 -11.558594 0.398438 -11.707031 0.835938 -11.816406 C 1.273438 -11.925781 1.703125 -11.980469 2.125 -11.972656 L 2.136719 -11.980469 L 1.796875 -12.464844 L 2.730469 -13 L 4.351562 -10.167969 L 3.5625 -9.71875 C 2.574219 -10.9375 1.503906 -11.226562 0.355469 -10.589844 C -0.1875 -10.277344 -0.558594 -9.855469 -0.75 -9.320312 C -0.941406 -8.785156 -0.980469 -8.199219 -0.867188 -7.566406 C -0.75 -6.933594 -0.519531 -6.316406 -0.171875 -5.707031 C 0.226562 -5.011719 0.683594 -4.449219 1.195312 -4.023438 C 1.707031 -3.597656 2.242188 -3.339844 2.796875 -3.253906 C 3.351562 -3.167969 3.894531 -3.28125 4.429688 -3.585938 C 4.949219 -3.882812 5.378906 -4.308594 5.722656 -4.859375 C 6.070312 -5.410156 6.28125 -6.015625 6.355469 -6.671875 L 7.242188 -6.472656 C 7.132812 -5.429688 6.835938 -4.585938 6.355469 -3.9375 C 5.875 -3.292969 5.324219 -2.792969 4.703125 -2.433594 Z M 4.703125 -2.433594 "/></g></g></g></svg>